P3
# CREATOR: GIMP PNM Filter Version 1.1
2 2
255
103
103
103
94
94
94
113
113
113
103
103
103
