P3
# CREATOR: GIMP PNM Filter Version 1.1
3 3
255
103	0	0		0	150	0		0	0	250	
0	0	150		150	150	255		255	255 255
255	0	0		0	255	0		0	0	255
