P3
# CREATOR: GIMP PNM Filter Version 1.1
4 4
255
103	0	0		0	150	0		0	0	250		0	150	0
0	0	150		150	150	255		255	255 255		150	150	255
255	0	0		0	255	0		0	0	255		0	255	0
0	0	150		150	150	255		255	255 255		150	150	255
