P3
# CREATOR: GIMP PNM Filter Version 1.1
64 64
255
84
106
121
84
106
121
84
106
121
84
106
121
84
106
121
84
106
121
84
106
121
84
106
121
84
106
121
84
106
121
84
106
121
84
106
121
84
106
121
84
106
121
84
106
121
84
106
121
84
106
121
84
106
121
84
106
121
84
106
121
84
106
121
84
106
121
84
106
121
84
106
121
84
106
121
84
106
121
84
106
121
84
106
121
84
106
121
84
106
121
84
106
121
84
106
121
84
106
121
84
106
121
84
106
121
84
106
121
84
106
121
84
106
121
84
106
121
84
106
121
84
106
121
84
106
121
84
106
121
84
106
121
84
106
121
84
106
121
84
106
121
84
106
121
84
106
121
84
106
121
84
106
121
84
106
121
84
106
121
84
106
121
84
106
121
84
106
121
84
106
121
84
106
121
84
106
121
84
106
121
84
106
121
84
106
121
84
106
121
84
106
121
84
106
121
84
106
121
84
106
121
84
106
121
84
106
121
84
106
121
84
106
121
84
106
121
84
106
121
84
106
121
84
106
121
84
106
121
84
106
121
84
106
121
84
106
121
84
106
121
84
106
121
84
106
121
84
106
121
84
106
121
84
106
121
84
106
121
84
106
121
84
106
121
84
106
121
84
106
121
84
106
121
84
106
121
84
106
121
84
106
121
84
106
121
84
106
121
84
106
121
84
106
121
84
106
121
84
106
121
84
106
121
84
106
121
84
106
121
84
106
121
84
106
121
84
106
121
84
106
121
84
106
121
84
106
121
84
106
121
84
106
121
84
106
121
84
106
121
84
106
121
84
106
121
84
106
121
84
106
121
84
106
121
84
106
121
84
106
121
84
106
121
84
106
121
84
106
121
84
106
121
84
106
121
84
106
121
84
106
121
84
106
121
84
106
121
84
106
121
84
106
121
84
106
121
84
106
121
84
106
121
84
106
121
84
106
121
84
106
121
84
106
121
84
106
121
84
106
121
84
106
121
84
106
121
84
106
121
84
106
121
84
106
121
84
106
121
84
106
121
84
106
121
84
106
121
84
106
121
84
106
121
84
106
121
84
106
121
84
106
121
84
106
121
84
106
121
84
106
121
84
106
121
84
106
121
84
106
121
84
106
121
84
106
121
84
106
121
84
106
121
84
106
121
84
106
121
84
106
121
84
106
121
84
106
121
84
106
121
84
106
121
84
106
121
84
106
121
84
106
121
84
106
121
84
106
121
84
106
121
84
106
121
84
106
121
84
106
121
84
106
121
84
106
121
84
106
121
84
106
121
84
106
121
84
106
121
84
106
121
84
106
121
84
106
121
84
106
121
84
106
121
84
106
121
84
106
121
84
106
121
84
106
121
84
106
121
88
106
120
151
109
110
181
110
106
163
110
109
100
107
119
84
106
121
84
106
121
84
106
121
84
106
121
84
106
121
91
110
116
157
148
76
184
164
60
162
151
73
96
113
113
84
106
121
84
106
121
84
106
121
84
106
121
84
106
121
84
111
120
82
145
116
81
157
115
82
144
116
84
110
120
84
106
121
84
106
121
84
106
121
84
106
121
84
106
121
84
106
121
84
106
121
84
106
121
84
106
121
84
106
121
84
106
121
84
106
121
84
106
121
84
106
121
84
106
121
84
106
121
84
106
121
84
106
121
84
106
121
84
106
121
84
106
121
84
106
121
84
106
121
84
106
121
84
106
121
84
106
121
84
106
121
84
106
121
84
106
121
84
106
121
84
106
121
84
106
121
84
106
121
84
106
121
84
106
121
84
106
121
84
106
121
84
106
121
88
106
120
207
112
102
237
113
97
237
113
97
237
113
97
227
113
99
106
107
118
84
106
121
84
106
121
84
106
121
92
111
116
216
182
40
240
196
25
240
196
25
240
196
25
226
188
34
101
116
111
84
106
121
84
106
121
84
106
121
84
112
120
80
177
112
79
186
111
79
186
111
79
186
111
80
175
112
84
111
120
84
106
121
84
106
121
84
106
121
84
106
121
84
106
121
84
106
121
84
106
121
84
106
121
84
106
121
84
106
121
84
106
121
84
106
121
84
106
121
84
106
121
84
106
121
84
106
121
84
106
121
84
106
121
84
106
121
84
106
121
84
106
121
84
106
121
84
106
121
84
106
121
84
106
121
84
106
121
84
106
121
84
106
121
84
106
121
84
106
121
84
106
121
84
106
121
84
106
121
84
106
121
84
106
121
84
106
121
84
106
121
151
109
110
237
113
97
237
113
97
237
113
97
237
113
97
237
113
97
186
111
105
84
106
121
84
106
121
84
106
121
162
151
73
240
196
25
240
196
25
240
196
25
240
196
25
240
196
25
178
160
63
84
106
121
84
106
121
84
106
121
81
151
115
79
186
111
79
186
111
79
186
111
79
186
111
79
186
111
81
149
116
84
106
121
84
106
121
84
106
121
84
106
121
84
106
121
84
106
121
84
106
121
84
106
121
84
106
121
84
106
121
84
106
121
84
106
121
84
106
121
84
106
121
84
106
121
84
106
121
84
106
121
84
106
121
84
106
121
84
106
121
84
106
121
84
106
121
84
106
121
84
106
121
84
106
121
84
106
121
84
106
121
84
106
121
84
106
121
84
106
121
84
106
121
84
106
121
84
106
121
84
106
121
84
106
121
84
106
121
84
106
121
181
110
106
237
113
97
237
113
97
237
113
97
237
113
97
237
113
97
219
112
100
84
106
121
84
106
121
84
106
121
193
169
54
240
196
25
240
196
25
240
196
25
240
196
25
240
196
25
212
180
42
84
106
121
84
106
121
84
106
121
80
167
113
79
186
111
79
186
111
79
186
111
79
186
111
79
186
111
80
164
114
84
106
121
84
106
121
84
106
121
84
106
121
84
106
121
84
106
121
84
106
121
84
106
121
84
106
121
84
106
121
84
106
121
84
106
121
84
106
121
84
106
121
84
106
121
84
106
121
84
106
121
84
106
121
84
106
121
84
106
121
84
106
121
84
106
121
84
106
121
84
106
121
84
106
121
84
106
121
84
106
121
84
106
121
84
106
121
84
106
121
84
106
121
84
106
121
84
106
121
84
106
121
84
106
121
84
106
121
84
106
121
163
110
109
237
113
97
237
113
97
237
113
97
237
113
97
237
113
97
198
111
103
84
106
121
84
106
121
84
106
121
174
158
66
240
196
25
240
196
25
240
196
25
240
196
25
240
196
25
190
167
55
84
106
121
84
106
121
84
106
121
81
157
115
79
186
111
79
186
111
79
186
111
79
186
111
79
186
111
81
155
115
84
106
121
84
106
121
84
106
121
84
106
121
84
106
121
84
106
121
84
106
121
84
106
121
84
106
121
84
106
121
84
106
121
84
106
121
84
106
121
84
106
121
84
106
121
84
106
121
84
106
121
84
106
121
84
106
121
84
106
121
84
106
121
84
106
121
84
106
121
84
106
121
84
106
121
84
106
121
84
106
121
84
106
121
84
106
121
84
106
121
84
106
121
84
106
121
84
106
121
84
106
121
84
106
121
84
106
121
84
106
121
100
107
119
227
113
99
237
113
97
237
113
97
237
113
97
237
113
97
126
108
114
84
106
121
84
106
121
84
106
121
106
119
107
234
192
29
240
196
25
240
196
25
240
196
25
239
195
26
118
126
100
84
106
121
84
106
121
84
106
121
83
121
119
79
184
111
79
186
111
79
186
111
79
186
111
79
183
111
83
119
119
84
106
121
84
106
121
84
106
121
84
106
121
84
106
121
84
106
121
84
106
121
84
106
121
84
106
121
84
106
121
84
106
121
84
106
121
84
106
121
84
106
121
84
106
121
84
106
121
84
106
121
84
106
121
84
106
121
84
106
121
84
106
121
84
106
121
84
106
121
84
106
121
84
106
121
84
106
121
84
106
121
84
106
121
84
106
121
84
106
121
84
106
121
84
106
121
84
106
121
84
106
121
84
106
121
84
106
121
84
106
121
84
106
121
106
107
118
186
111
105
219
112
100
198
111
103
126
108
114
84
106
121
84
106
121
84
106
121
84
106
121
84
106
121
112
122
104
193
169
54
222
185
36
197
171
51
121
127
98
84
106
121
84
106
121
84
106
121
84
106
121
84
106
121
83
123
119
80
163
114
80
177
112
80
162
114
83
122
119
84
106
121
84
106
121
84
106
121
84
106
121
84
106
121
84
106
121
84
106
121
84
106
121
84
106
121
84
106
121
84
106
121
84
106
121
84
106
121
84
106
121
84
106
121
84
106
121
84
106
121
84
106
121
84
106
121
84
106
121
84
106
121
84
106
121
84
106
121
84
106
121
84
106
121
84
106
121
84
106
121
84
106
121
84
106
121
84
106
121
84
106
121
84
106
121
84
106
121
84
106
121
84
106
121
84
106
121
84
106
121
84
106
121
84
106
121
84
106
121
84
106
121
84
106
121
84
106
121
84
106
121
84
106
121
84
106
121
84
106
121
84
106
121
84
106
121
84
106
121
84
106
121
84
106
121
84
106
121
84
106
121
84
106
121
84
106
121
84
106
121
84
106
121
84
106
121
84
106
121
84
106
121
84
106
121
84
106
121
84
106
121
84
106
121
84
106
121
84
106
121
84
106
121
84
106
121
84
106
121
84
106
121
84
106
121
84
106
121
84
106
121
84
106
121
84
106
121
84
106
121
84
106
121
84
106
121
84
106
121
84
106
121
84
106
121
84
106
121
84
106
121
84
106
121
84
106
121
84
106
121
84
106
121
84
106
121
84
106
121
84
106
121
84
106
121
84
106
121
84
106
121
84
106
121
84
106
121
84
106
121
84
106
121
84
106
121
84
106
121
84
106
121
84
106
121
84
106
121
84
106
121
84
106
121
84
106
121
84
106
121
84
106
121
84
106
121
84
106
121
84
106
121
84
106
121
84
106
121
84
106
121
84
106
121
84
106
121
84
106
121
84
106
121
84
106
121
84
106
121
84
106
121
84
106
121
84
106
121
84
106
121
84
106
121
84
106
121
84
106
121
84
106
121
84
106
121
84
106
121
84
106
121
84
106
121
84
106
121
84
106
121
84
106
121
84
106
121
84
106
121
84
106
121
84
106
121
84
106
121
84
106
121
84
106
121
84
106
121
84
106
121
84
106
121
84
106
121
84
106
121
84
106
121
84
106
121
84
106
121
84
106
121
84
106
121
84
106
121
84
106
121
84
106
121
84
106
121
84
106
121
84
106
121
84
106
121
84
106
121
84
106
121
84
106
121
84
106
121
84
106
121
84
106
121
84
106
121
84
106
121
84
106
121
84
106
121
84
106
121
84
106
121
84
106
121
84
106
121
84
106
121
84
106
121
84
106
121
84
106
121
84
106
121
84
106
121
84
106
121
84
106
121
84
106
121
84
106
121
84
106
121
84
106
121
84
106
121
84
106
121
84
106
121
84
106
121
84
106
121
84
106
121
84
106
121
84
106
121
84
106
121
84
106
121
84
106
121
84
106
121
84
106
121
84
106
121
84
106
121
84
106
121
84
106
121
84
106
121
84
106
121
84
106
121
84
106
121
84
106
121
84
106
121
84
106
121
84
106
121
84
106
121
84
106
121
84
106
121
84
106
121
84
106
121
84
106
121
84
106
121
84
106
121
84
106
121
84
106
121
84
106
121
84
106
121
84
106
121
84
106
121
84
106
121
84
106
121
84
106
121
161
175
176
161
175
176
161
175
176
161
175
176
161
175
176
161
175
176
161
175
176
171
184
186
198
206
211
198
206
211
198
206
211
198
206
211
198
206
211
198
206
211
198
206
211
198
206
211
198
206
211
198
206
211
198
206
211
198
206
211
198
206
211
198
206
211
198
206
211
198
206
211
198
206
211
198
206
211
198
206
211
198
206
211
198
206
211
198
206
211
198
206
211
198
206
211
198
206
211
198
206
211
198
206
211
198
206
211
198
206
211
198
206
211
198
206
211
198
206
211
198
206
211
198
206
211
198
206
211
198
206
211
198
206
211
198
206
211
198
206
211
198
206
211
198
206
211
198
206
211
198
206
211
198
206
211
198
206
211
198
206
211
198
206
211
198
206
211
198
206
211
198
206
211
198
206
211
198
206
211
198
206
211
198
206
211
198
206
211
198
206
211
149
165
165
149
165
165
149
165
165
149
165
165
149
165
165
149
165
165
149
165
165
173
186
186
236
240
241
236
240
241
236
240
241
236
240
241
236
240
241
236
240
241
236
240
241
236
240
241
236
240
241
236
240
241
236
240
241
236
240
241
236
240
241
236
240
241
236
240
241
236
240
241
236
240
241
236
240
241
236
240
241
236
240
241
236
240
241
236
240
241
236
240
241
236
240
241
236
240
241
236
240
241
236
240
241
236
240
241
236
240
241
236
240
241
236
240
241
236
240
241
236
240
241
236
240
241
236
240
241
236
240
241
236
240
241
236
240
241
236
240
241
236
240
241
236
240
241
236
240
241
236
240
241
236
240
241
236
240
241
236
240
241
236
240
241
236
240
241
236
240
241
236
240
241
236
240
241
236
240
241
236
240
241
236
240
241
236
240
241
236
240
241
149
165
165
149
165
165
149
165
165
149
165
165
149
165
165
149
165
165
149
165
165
173
186
186
236
240
241
236
240
241
236
240
241
236
240
241
236
240
241
236
240
241
236
240
241
236
240
241
236
240
241
236
240
241
236
240
241
236
240
241
236
240
241
236
240
241
236
240
241
236
240
241
236
240
241
236
240
241
236
240
241
236
240
241
236
240
241
236
240
241
236
240
241
236
240
241
236
240
241
236
240
241
236
240
241
236
240
241
236
240
241
236
240
241
236
240
241
236
240
241
236
240
241
236
240
241
236
240
241
236
240
241
236
240
241
236
240
241
236
240
241
236
240
241
236
240
241
236
240
241
236
240
241
236
240
241
236
240
241
236
240
241
236
240
241
236
240
241
236
240
241
236
240
241
236
240
241
236
240
241
236
240
241
236
240
241
236
240
241
236
240
241
149
165
165
149
165
165
149
165
165
149
165
165
149
165
165
149
165
165
149
165
165
173
186
186
236
240
241
236
240
241
236
240
241
236
240
241
236
240
241
236
240
241
236
240
241
236
240
241
236
240
241
236
240
241
236
240
241
236
240
241
236
240
241
236
240
241
236
240
241
236
240
241
236
240
241
236
240
241
236
240
241
236
240
241
236
240
241
236
240
241
236
240
241
236
240
241
236
240
241
236
240
241
236
240
241
236
240
241
236
240
241
236
240
241
236
240
241
236
240
241
236
240
241
236
240
241
236
240
241
236
240
241
236
240
241
236
240
241
236
240
241
236
240
241
236
240
241
236
240
241
236
240
241
236
240
241
236
240
241
236
240
241
236
240
241
236
240
241
236
240
241
236
240
241
236
240
241
236
240
241
236
240
241
236
240
241
236
240
241
236
240
241
149
165
165
149
165
165
151
167
167
162
175
176
160
173
174
149
165
165
149
165
165
173
186
186
236
240
241
236
240
241
236
240
241
236
240
241
229
234
238
202
211
228
201
210
228
201
210
228
201
210
228
201
210
228
201
210
228
201
210
228
201
210
228
201
210
228
201
210
228
201
210
228
201
210
228
201
210
228
201
210
228
204
212
229
232
237
240
236
240
241
236
240
241
237
234
210
237
225
166
237
225
166
237
225
166
237
225
166
237
225
166
237
225
166
237
225
166
237
225
166
237
225
166
237
225
166
237
225
166
237
233
207
236
240
241
236
240
241
231
238
237
188
223
201
182
221
196
186
223
200
228
237
234
236
240
241
236
240
241
236
240
241
236
240
241
236
240
241
236
240
241
236
240
241
236
240
241
236
240
241
236
240
241
236
240
241
236
240
241
236
240
241
149
165
165
149
165
165
175
185
187
189
195
199
189
195
199
165
177
178
149
165
165
173
186
186
236
240
241
236
240
241
236
240
241
236
240
241
161
174
213
134
151
203
134
151
203
134
151
203
134
151
203
134
151
203
134
151
203
134
151
203
134
151
203
134
151
203
134
151
203
134
151
203
134
151
203
134
151
203
134
151
203
134
151
203
178
190
220
236
240
241
236
239
237
240
198
36
240
196
25
240
196
25
240
196
25
240
196
25
240
196
25
240
196
25
240
196
25
240
196
25
240
196
25
240
196
25
240
196
25
240
198
33
236
238
233
236
240
241
152
211
172
79
186
111
79
186
111
79
186
111
137
206
159
236
240
241
236
240
241
236
240
241
236
240
241
236
240
241
236
240
241
236
240
241
236
240
241
236
240
241
236
240
241
236
240
241
236
240
241
236
240
241
149
165
165
149
165
165
163
176
177
183
191
194
181
189
192
156
170
171
149
165
165
173
186
186
236
240
241
236
240
241
236
240
241
236
240
241
194
204
226
148
163
208
146
162
208
146
162
208
146
162
208
146
162
208
146
162
208
146
162
208
146
162
208
146
162
208
146
162
208
146
162
208
146
162
208
146
162
208
146
162
208
150
165
209
207
215
230
236
240
241
236
240
241
238
213
110
240
201
51
240
201
51
240
201
51
240
201
51
240
201
51
240
201
51
240
201
51
240
201
51
240
201
51
240
201
51
240
201
51
239
212
105
236
240
241
236
240
241
195
226
207
105
195
132
98
193
127
102
194
130
184
222
198
236
240
241
236
240
241
236
240
241
236
240
241
236
240
241
236
240
241
236
240
241
236
240
241
236
240
241
236
240
241
236
240
241
236
240
241
236
240
241
149
165
165
149
165
165
149
165
165
149
165
165
149
165
165
149
165
165
149
165
165
173
186
186
236
240
241
236
240
241
236
240
241
236
240
241
236
240
241
236
240
241
236
240
241
236
240
241
236
240
241
236
240
241
236
240
241
236
240
241
236
240
241
236
240
241
236
240
241
236
240
241
236
240
241
236
240
241
236
240
241
236
240
241
236
240
241
236
240
241
236
240
241
236
240
241
236
240
241
236
240
241
236
240
241
236
240
241
236
240
241
236
240
241
236
240
241
236
240
241
236
240
241
236
240
241
236
240
241
236
240
241
236
240
241
236
240
241
236
240
241
236
240
241
236
240
241
236
240
241
236
240
241
236
240
241
236
240
241
236
240
241
236
240
241
236
240
241
236
240
241
236
240
241
236
240
241
236
240
241
236
240
241
236
240
241
236
240
241
236
240
241
149
165
165
149
165
165
149
165
165
149
165
165
149
165
165
149
165
165
149
165
165
173
186
186
236
240
241
236
240
241
236
240
241
236
240
241
236
240
241
236
240
241
236
240
241
236
240
241
236
240
241
236
240
241
236
240
241
236
240
241
236
240
241
236
240
241
236
240
241
236
240
241
236
240
241
236
240
241
236
240
241
236
240
241
236
240
241
236
240
241
236
240
241
236
240
241
236
240
241
236
240
241
236
240
241
236
240
241
236
240
241
236
240
241
236
240
241
236
240
241
236
240
241
236
240
241
236
240
241
236
240
241
236
240
241
236
240
241
236
240
241
236
240
241
236
240
241
236
240
241
236
240
241
236
240
241
236
240
241
236
240
241
236
240
241
236
240
241
236
240
241
236
240
241
236
240
241
236
240
241
236
240
241
236
240
241
236
240
241
236
240
241
149
165
165
149
165
165
165
177
178
186
193
196
184
191
194
157
171
172
149
165
165
173
186
186
236
240
241
236
240
241
236
240
241
236
240
241
233
165
159
230
88
73
231
102
88
235
216
215
236
240
241
235
226
225
231
106
93
230
86
71
230
86
71
230
86
71
230
86
71
230
86
71
230
86
71
230
86
71
230
86
71
230
86
71
230
86
71
230
86
71
230
86
71
230
86
71
230
86
71
230
86
71
231
108
95
236
228
228
236
240
241
219
225
235
149
164
209
140
156
205
140
156
205
140
156
205
140
156
205
140
156
205
140
156
205
140
156
205
140
156
205
140
156
205
140
156
205
140
156
205
140
156
205
140
156
205
140
156
205
140
156
205
140
156
205
156
170
211
232
236
239
236
240
241
236
240
241
236
240
241
236
240
241
236
240
241
236
240
241
236
240
241
149
165
165
149
165
165
174
184
187
189
195
199
189
195
199
164
176
178
149
165
165
173
186
186
236
240
241
236
240
241
236
240
241
236
240
241
232
123
112
230
76
60
230
76
60
234
192
188
236
240
241
235
208
206
230
76
60
230
76
60
230
76
60
230
76
60
230
76
60
230
76
60
230
76
60
230
76
60
230
76
60
230
76
60
230
76
60
230
76
60
230
76
60
230
76
60
230
76
60
230
76
60
230
77
61
235
212
210
236
240
241
203
211
229
134
151
203
134
151
203
134
151
203
134
151
203
134
151
203
134
151
203
134
151
203
134
151
203
134
151
203
134
151
203
134
151
203
134
151
203
134
151
203
134
151
203
134
151
203
134
151
203
134
151
203
135
152
203
223
228
236
236
240
241
236
240
241
236
240
241
236
240
241
236
240
241
236
240
241
236
240
241
149
165
165
149
165
165
150
166
166
159
173
174
157
171
172
149
165
165
149
165
165
173
186
186
236
240
241
236
240
241
236
240
241
236
240
241
236
235
235
234
196
193
235
210
208
236
240
241
236
240
241
236
240
241
235
214
212
234
194
190
234
194
190
234
194
190
234
194
190
234
194
190
234
194
190
234
194
190
234
194
190
234
194
190
234
194
190
234
194
190
234
194
190
234
194
190
234
194
190
234
194
190
235
216
214
236
240
241
236
240
241
236
240
241
216
223
234
207
215
230
207
215
230
207
215
230
207
215
230
207
215
230
207
215
230
207
215
230
207
215
230
207
215
230
207
215
230
207
215
230
207
215
230
207
215
230
207
215
230
207
215
230
207
215
230
222
228
236
236
240
241
236
240
241
236
240
241
236
240
241
236
240
241
236
240
241
236
240
241
236
240
241
149
165
165
149
165
165
149
165
165
149
165
165
149
165
165
149
165
165
149
165
165
173
186
186
236
240
241
236
240
241
236
240
241
236
240
241
236
240
241
236
240
241
236
240
241
236
240
241
236
240
241
236
240
241
236
240
241
236
240
241
236
240
241
236
240
241
236
240
241
236
240
241
236
240
241
236
240
241
236
240
241
236
240
241
236
240
241
236
240
241
236
240
241
236
240
241
236
240
241
236
240
241
236
240
241
236
240
241
236
240
241
236
240
241
236
240
241
236
240
241
236
240
241
236
240
241
236
240
241
236
240
241
236
240
241
236
240
241
236
240
241
236
240
241
236
240
241
236
240
241
236
240
241
236
240
241
236
240
241
236
240
241
236
240
241
236
240
241
236
240
241
236
240
241
236
240
241
236
240
241
236
240
241
236
240
241
236
240
241
236
240
241
149
165
165
149
165
165
155
169
170
169
180
182
167
179
180
151
166
167
149
165
165
173
186
186
236
240
241
236
240
241
236
240
241
236
240
241
219
225
235
183
194
221
182
193
221
182
193
221
182
193
221
182
193
221
182
193
221
182
193
221
182
193
221
182
193
221
182
193
221
198
206
227
236
240
241
236
240
241
236
238
231
238
220
143
238
217
126
238
217
128
237
232
202
236
240
241
236
240
241
208
230
218
154
212
173
152
211
172
152
211
172
152
211
172
152
211
172
152
211
172
152
211
172
152
211
172
152
211
172
152
211
172
152
211
172
152
211
172
152
211
172
152
211
172
152
211
172
157
213
175
216
233
224
236
240
241
236
240
241
236
240
241
236
240
241
236
240
241
236
240
241
236
240
241
236
240
241
236
240
241
236
240
241
236
240
241
236
240
241
236
240
241
149
165
165
149
165
165
176
185
188
189
195
199
189
195
199
166
177
179
149
165
165
173
186
186
236
240
241
236
240
241
236
240
241
236
240
241
158
172
212
134
151
203
134
151
203
134
151
203
134
151
203
134
151
203
134
151
203
134
151
203
134
151
203
134
151
203
134
151
203
134
151
203
219
225
235
236
240
241
238
222
151
240
196
25
240
196
25
240
196
25
239
205
70
236
240
241
236
240
241
112
197
138
79
186
111
79
186
111
79
186
111
79
186
111
79
186
111
79
186
111
79
186
111
79
186
111
79
186
111
79
186
111
79
186
111
79
186
111
79
186
111
79
186
111
79
186
111
79
186
111
134
205
157
236
240
241
236
240
241
236
240
241
236
240
241
236
240
241
236
240
241
236
240
241
236
240
241
236
240
241
236
240
241
236
240
241
236
240
241
236
240
241
149
165
165
149
165
165
159
172
173
176
185
188
174
183
186
153
168
169
149
165
165
173
186
186
236
240
241
236
240
241
236
240
241
236
240
241
207
215
230
167
180
215
166
179
215
166
179
215
166
179
215
166
179
215
166
179
215
166
179
215
166
179
215
166
179
215
166
179
215
180
191
220
235
239
241
236
240
241
236
235
218
238
213
108
239
210
92
239
210
94
237
227
175
236
240
241
236
240
241
188
223
201
129
203
153
128
203
151
128
203
151
128
203
151
128
203
151
128
203
151
128
203
151
128
203
151
128
203
151
128
203
151
128
203
151
128
203
151
128
203
151
128
203
151
128
203
151
132
204
155
200
228
211
236
240
241
236
240
241
236
240
241
236
240
241
236
240
241
236
240
241
236
240
241
236
240
241
236
240
241
236
240
241
236
240
241
236
240
241
236
240
241
149
165
165
149
165
165
149
165
165
149
165
165
149
165
165
149
165
165
149
165
165
173
186
186
236
240
241
236
240
241
236
240
241
236
240
241
236
240
241
236
240
241
236
240
241
236
240
241
236
240
241
236
240
241
236
240
241
236
240
241
236
240
241
236
240
241
236
240
241
236
240
241
236
240
241
236
240
241
236
240
241
236
240
241
236
240
241
236
240
241
236
240
241
236
240
241
236
240
241
236
240
241
236
240
241
236
240
241
236
240
241
236
240
241
236
240
241
236
240
241
236
240
241
236
240
241
236
240
241
236
240
241
236
240
241
236
240
241
236
240
241
236
240
241
236
240
241
236
240
241
236
240
241
236
240
241
236
240
241
236
240
241
236
240
241
236
240
241
236
240
241
236
240
241
236
240
241
236
240
241
236
240
241
236
240
241
236
240
241
236
240
241
149
165
165
149
165
165
149
165
165
152
167
168
151
166
167
149
165
165
149
165
165
173
186
186
236
240
241
236
240
241
236
240
241
236
240
241
236
240
241
236
237
224
236
236
221
236
236
221
236
236
221
236
236
221
236
236
221
236
236
221
236
236
221
236
236
221
236
236
221
236
236
221
236
236
221
236
236
221
236
236
221
236
237
227
236
240
241
236
240
241
236
240
241
235
240
240
221
235
229
221
235
229
221
235
229
221
235
229
221
235
229
221
235
229
221
235
229
221
235
229
221
235
229
221
235
229
221
235
229
234
239
239
236
240
241
236
240
241
236
240
241
236
240
241
236
240
241
236
240
241
236
240
241
236
240
241
236
240
241
236
240
241
236
240
241
236
240
241
236
240
241
236
240
241
236
240
241
236
240
241
236
240
241
236
240
241
236
240
241
236
240
241
149
165
165
149
165
165
170
181
183
189
195
199
188
194
198
160
174
175
149
165
165
173
186
186
236
240
241
236
240
241
236
240
241
236
240
241
238
213
110
240
196
25
240
196
25
240
196
25
240
196
25
240
196
25
240
196
25
240
196
25
240
196
25
240
196
25
240
196
25
240
196
25
240
196
25
240
196
25
240
196
25
240
196
26
238
221
145
236
240
241
235
240
240
105
195
132
79
186
111
79
186
111
79
186
111
79
186
111
79
186
111
79
186
111
79
186
111
79
186
111
79
186
111
79
186
111
79
186
111
102
194
130
233
239
238
236
240
241
236
240
241
236
240
241
236
240
241
236
240
241
236
240
241
236
240
241
236
240
241
236
240
241
236
240
241
236
240
241
236
240
241
236
240
241
236
240
241
236
240
241
236
240
241
236
240
241
236
240
241
236
240
241
149
165
165
149
165
165
170
181
183
189
195
199
188
194
198
160
174
175
149
165
165
173
186
186
236
240
241
236
240
241
236
240
241
236
240
241
238
213
110
240
196
25
240
196
25
240
196
25
240
196
25
240
196
25
240
196
25
240
196
25
240
196
25
240
196
25
240
196
25
240
196
25
240
196
25
240
196
25
240
196
25
240
196
26
238
221
145
236
240
241
235
240
240
105
195
132
79
186
111
79
186
111
79
186
111
79
186
111
79
186
111
79
186
111
79
186
111
79
186
111
79
186
111
79
186
111
79
186
111
102
194
130
233
239
238
236
240
241
236
240
241
236
240
241
236
240
241
236
240
241
236
240
241
236
240
241
236
240
241
236
240
241
236
240
241
236
240
241
236
240
241
236
240
241
236
240
241
236
240
241
236
240
241
236
240
241
236
240
241
236
240
241
149
165
165
149
165
165
149
165
165
152
167
168
151
166
167
149
165
165
149
165
165
173
186
186
236
240
241
236
240
241
236
240
241
236
240
241
236
240
241
236
237
224
236
236
221
236
236
221
236
236
221
236
236
221
236
236
221
236
236
221
236
236
221
236
236
221
236
236
221
236
236
221
236
236
221
236
236
221
236
236
221
236
237
227
236
240
241
236
240
241
236
240
241
235
240
240
221
235
229
221
235
229
221
235
229
221
235
229
221
235
229
221
235
229
221
235
229
221
235
229
221
235
229
221
235
229
221
235
229
234
239
239
236
240
241
236
240
241
236
240
241
236
240
241
236
240
241
236
240
241
236
240
241
236
240
241
236
240
241
236
240
241
236
240
241
236
240
241
236
240
241
236
240
241
236
240
241
236
240
241
236
240
241
236
240
241
236
240
241
236
240
241
149
165
165
149
165
165
149
165
165
149
165
165
149
165
165
149
165
165
149
165
165
173
186
186
236
240
241
236
240
241
236
240
241
236
240
241
236
240
241
236
240
241
236
240
241
236
240
241
236
240
241
236
240
241
236
240
241
236
240
241
236
240
241
236
240
241
236
240
241
236
240
241
236
240
241
236
240
241
236
240
241
236
240
241
236
240
241
236
240
241
236
240
241
236
240
241
236
240
241
236
240
241
236
240
241
236
240
241
236
240
241
236
240
241
236
240
241
236
240
241
236
240
241
236
240
241
236
240
241
236
240
241
236
240
241
236
240
241
236
240
241
236
240
241
236
240
241
236
240
241
236
240
241
236
240
241
236
240
241
236
240
241
236
240
241
236
240
241
236
240
241
236
240
241
236
240
241
236
240
241
236
240
241
236
240
241
236
240
241
236
240
241
149
165
165
149
165
165
159
172
173
176
185
188
174
183
186
153
168
169
149
165
165
173
186
186
236
240
241
236
240
241
236
240
241
236
240
241
191
225
204
130
204
153
142
208
163
224
236
231
236
240
241
232
237
240
177
189
219
166
179
215
166
179
215
166
179
215
166
179
215
166
179
215
166
179
215
166
179
215
166
179
215
166
179
215
166
179
215
166
179
215
166
179
215
166
179
215
166
179
215
166
179
215
178
190
220
233
238
240
236
240
241
236
236
222
238
213
109
239
210
92
239
210
92
239
210
92
239
210
92
239
210
92
239
210
92
239
210
92
239
210
92
238
213
106
236
235
215
236
240
241
236
240
241
236
240
241
236
240
241
236
240
241
236
240
241
236
240
241
236
240
241
236
240
241
236
240
241
236
240
241
236
240
241
236
240
241
236
240
241
236
240
241
149
165
165
149
165
165
176
185
188
189
195
199
189
195
199
166
177
179
149
165
165
173
186
186
236
240
241
236
240
241
236
240
241
236
240
241
117
199
142
79
186
111
79
186
111
184
222
198
236
240
241
212
219
232
134
151
203
134
151
203
134
151
203
134
151
203
134
151
203
134
151
203
134
151
203
134
151
203
134
151
203
134
151
203
134
151
203
134
151
203
134
151
203
134
151
203
134
151
203
134
151
203
134
151
203
215
222
233
236
240
241
237
224
162
240
196
25
240
196
25
240
196
25
240
196
25
240
196
25
240
196
25
240
196
25
240
196
25
240
196
25
240
196
25
238
220
144
236
240
241
236
240
241
236
240
241
236
240
241
236
240
241
236
240
241
236
240
241
236
240
241
236
240
241
236
240
241
236
240
241
236
240
241
236
240
241
236
240
241
236
240
241
149
165
165
149
165
165
155
169
170
169
180
182
167
179
180
151
166
167
149
165
165
173
186
186
236
240
241
236
240
241
236
240
241
236
240
241
210
231
219
155
212
174
168
216
184
231
238
237
236
240
241
235
239
241
194
204
226
182
193
221
182
193
221
182
193
221
182
193
221
182
193
221
182
193
221
182
193
221
182
193
221
182
193
221
182
193
221
182
193
221
182
193
221
182
193
221
182
193
221
182
193
221
196
205
226
236
240
241
236
240
241
236
238
233
238
220
144
238
217
126
238
217
126
238
217
126
238
217
126
238
217
126
238
217
126
238
217
126
238
217
126
238
220
141
236
237
228
236
240
241
236
240
241
236
240
241
236
240
241
236
240
241
236
240
241
236
240
241
236
240
241
236
240
241
236
240
241
236
240
241
236
240
241
236
240
241
236
240
241
236
240
241
149
165
165
149
165
165
149
165
165
149
165
165
149
165
165
149
165
165
149
165
165
173
186
186
236
240
241
236
240
241
236
240
241
236
240
241
236
240
241
236
240
241
236
240
241
236
240
241
236
240
241
236
240
241
236
240
241
236
240
241
236
240
241
236
240
241
236
240
241
236
240
241
236
240
241
236
240
241
236
240
241
236
240
241
236
240
241
236
240
241
236
240
241
236
240
241
236
240
241
236
240
241
236
240
241
236
240
241
236
240
241
236
240
241
236
240
241
236
240
241
236
240
241
236
240
241
236
240
241
236
240
241
236
240
241
236
240
241
236
240
241
236
240
241
236
240
241
236
240
241
236
240
241
236
240
241
236
240
241
236
240
241
236
240
241
236
240
241
236
240
241
236
240
241
236
240
241
236
240
241
236
240
241
236
240
241
236
240
241
236
240
241
149
165
165
149
165
165
150
166
166
159
173
174
157
171
172
149
165
165
149
165
165
173
186
186
236
240
241
236
240
241
236
240
241
236
240
241
236
239
234
237
228
183
237
228
180
237
228
180
237
228
180
237
228
180
237
228
180
237
228
180
237
228
180
237
228
180
237
228
180
237
234
211
236
240
241
236
240
241
236
240
241
215
222
233
207
215
230
208
216
231
232
237
240
236
240
241
236
240
241
236
234
235
234
196
192
234
194
190
234
194
190
234
194
190
234
194
190
234
194
190
234
194
190
234
194
190
234
194
190
234
194
190
234
194
190
234
194
190
234
194
190
234
194
190
234
194
190
234
194
190
234
196
193
236
235
235
236
240
241
236
240
241
236
240
241
236
240
241
236
240
241
236
240
241
236
240
241
236
240
241
236
240
241
236
240
241
236
240
241
236
240
241
149
165
165
149
165
165
174
184
187
189
195
199
189
195
199
164
176
178
149
165
165
173
186
186
236
240
241
236
240
241
236
240
241
236
240
241
239
209
87
240
196
25
240
196
25
240
196
25
240
196
25
240
196
25
240
196
25
240
196
25
240
196
25
240
196
25
240
196
25
240
197
28
237
234
213
236
240
241
198
207
227
134
151
203
134
151
203
134
151
203
160
174
213
236
240
241
236
240
241
232
118
106
230
76
60
230
76
60
230
76
60
230
76
60
230
76
60
230
76
60
230
76
60
230
76
60
230
76
60
230
76
60
230
76
60
230
76
60
230
76
60
230
76
60
230
76
60
230
76
60
230
76
60
232
123
112
236
240
241
236
240
241
236
240
241
236
240
241
236
240
241
236
240
241
236
240
241
236
240
241
236
240
241
236
240
241
236
240
241
236
240
241
149
165
165
149
165
165
165
177
178
186
193
196
184
191
194
157
171
172
149
165
165
173
186
186
236
240
241
236
240
241
236
240
241
236
240
241
238
220
143
240
199
41
240
199
38
240
199
38
240
199
38
240
199
38
240
199
38
240
199
38
240
199
38
240
199
38
240
199
38
239
205
72
236
238
232
236
240
241
216
223
234
148
163
208
140
156
205
141
157
206
187
197
223
236
240
241
236
240
241
233
161
154
230
88
73
230
86
71
230
86
71
230
86
71
230
86
71
230
86
71
230
86
71
230
86
71
230
86
71
230
86
71
230
86
71
230
86
71
230
86
71
230
86
71
230
86
71
230
86
71
230
88
73
233
165
159
236
240
241
236
240
241
236
240
241
236
240
241
236
240
241
236
240
241
236
240
241
236
240
241
236
240
241
236
240
241
236
240
241
236
240
241
149
165
165
149
165
165
149
165
165
149
165
165
149
165
165
149
165
165
149
165
165
173
186
186
236
240
241
236
240
241
236
240
241
236
240
241
236
240
241
236
240
241
236
240
241
236
240
241
236
240
241
236
240
241
236
240
241
236
240
241
236
240
241
236
240
241
236
240
241
236
240
241
236
240
241
236
240
241
236
240
241
236
240
241
236
240
241
236
240
241
236
240
241
236
240
241
236
240
241
236
240
241
236
240
241
236
240
241
236
240
241
236
240
241
236
240
241
236
240
241
236
240
241
236
240
241
236
240
241
236
240
241
236
240
241
236
240
241
236
240
241
236
240
241
236
240
241
236
240
241
236
240
241
236
240
241
236
240
241
236
240
241
236
240
241
236
240
241
236
240
241
236
240
241
236
240
241
236
240
241
236
240
241
236
240
241
236
240
241
236
240
241
149
165
165
149
165
165
149
165
165
149
165
165
149
165
165
149
165
165
149
165
165
173
186
186
236
240
241
236
240
241
236
240
241
236
240
241
236
240
241
236
240
241
236
240
241
236
240
241
236
240
241
236
240
241
236
240
241
236
240
241
236
240
241
236
240
241
236
240
241
236
240
241
236
240
241
236
240
241
236
240
241
236
240
241
236
240
241
236
240
241
236
240
241
236
240
241
236
240
241
236
240
241
236
240
241
236
240
241
236
240
241
236
240
241
236
240
241
236
240
241
236
240
241
236
240
241
236
240
241
236
240
241
236
240
241
236
240
241
236
240
241
236
240
241
236
240
241
236
240
241
236
240
241
236
240
241
236
240
241
236
240
241
236
240
241
236
240
241
236
240
241
236
240
241
236
240
241
236
240
241
236
240
241
236
240
241
236
240
241
236
240
241
149
165
165
149
165
165
163
176
177
183
191
194
181
189
192
156
170
171
149
165
165
173
186
186
236
240
241
236
240
241
236
240
241
236
240
241
194
204
226
148
163
208
146
162
208
146
162
208
146
162
208
146
162
208
146
162
208
146
162
208
146
162
208
146
162
208
146
162
208
146
162
208
146
162
208
146
162
208
146
162
208
150
165
209
207
215
230
236
240
241
236
240
241
141
207
162
98
193
127
98
193
127
98
193
127
98
193
127
98
193
127
98
193
127
98
193
127
98
193
127
98
193
127
98
193
127
98
193
127
137
206
159
236
240
241
236
240
241
234
197
193
231
103
90
231
96
82
231
96
82
231
96
82
231
96
82
231
96
82
231
96
82
231
96
82
232
122
110
236
235
235
236
240
241
236
240
241
236
240
241
236
240
241
236
240
241
236
240
241
236
240
241
149
165
165
149
165
165
175
185
187
189
195
199
189
195
199
165
177
178
149
165
165
173
186
186
236
240
241
236
240
241
236
240
241
236
240
241
161
174
213
134
151
203
134
151
203
134
151
203
134
151
203
134
151
203
134
151
203
134
151
203
134
151
203
134
151
203
134
151
203
134
151
203
134
151
203
134
151
203
134
151
203
134
151
203
178
190
220
236
240
241
233
239
238
87
189
118
79
186
111
79
186
111
79
186
111
79
186
111
79
186
111
79
186
111
79
186
111
79
186
111
79
186
111
79
186
111
79
186
111
85
188
116
230
238
236
236
240
241
233
153
144
230
76
60
230
76
60
230
76
60
230
76
60
230
76
60
230
76
60
230
76
60
230
76
60
230
76
60
235
216
215
236
240
241
236
240
241
236
240
241
236
240
241
236
240
241
236
240
241
236
240
241
149
165
165
149
165
165
151
167
167
162
175
176
160
173
174
149
165
165
149
165
165
173
186
186
236
240
241
236
240
241
236
240
241
236
240
241
229
234
238
202
211
228
201
210
228
201
210
228
201
210
228
201
210
228
201
210
228
201
210
228
201
210
228
201
210
228
201
210
228
201
210
228
201
210
228
201
210
228
201
210
228
204
212
229
232
237
240
236
240
241
236
240
241
213
232
222
182
221
196
182
221
196
182
221
196
182
221
196
182
221
196
182
221
196
182
221
196
182
221
196
182
221
196
182
221
196
182
221
196
211
232
221
236
240
241
236
240
241
236
235
235
234
190
186
234
183
179
234
183
179
234
183
179
234
183
179
234
183
179
234
183
179
234
183
179
235
207
204
236
240
241
236
240
241
236
240
241
236
240
241
236
240
241
236
240
241
236
240
241
236
240
241
149
165
165
149
165
165
149
165
165
149
165
165
149
165
165
149
165
165
149
165
165
173
186
186
236
240
241
236
240
241
236
240
241
236
240
241
236
240
241
236
240
241
236
240
241
236
240
241
236
240
241
236
240
241
236
240
241
236
240
241
236
240
241
236
240
241
236
240
241
236
240
241
236
240
241
236
240
241
236
240
241
236
240
241
236
240
241
236
240
241
236
240
241
236
240
241
236
240
241
236
240
241
236
240
241
236
240
241
236
240
241
236
240
241
236
240
241
236
240
241
236
240
241
236
240
241
236
240
241
236
240
241
236
240
241
236
240
241
236
240
241
236
240
241
236
240
241
236
240
241
236
240
241
236
240
241
236
240
241
236
240
241
236
240
241
236
240
241
236
240
241
236
240
241
236
240
241
236
240
241
236
240
241
236
240
241
236
240
241
236
240
241
149
165
165
149
165
165
153
168
169
166
178
179
164
176
177
150
166
166
149
165
165
173
186
186
236
240
241
236
240
241
236
240
241
236
240
241
237
234
214
238
221
150
237
225
166
236
239
237
236
240
241
236
239
240
234
187
182
233
168
162
233
168
162
233
168
162
233
168
162
233
168
162
233
168
162
233
168
162
233
168
162
233
168
162
233
168
162
233
168
162
233
168
162
233
168
162
233
168
162
233
168
162
234
189
184
236
240
241
236
240
241
233
238
240
199
208
227
191
201
224
191
201
224
191
201
224
191
201
224
212
219
232
236
240
241
236
240
241
236
240
241
236
240
241
236
240
241
236
240
241
236
240
241
236
240
241
236
240
241
236
240
241
236
240
241
236
240
241
236
240
241
236
240
241
236
240
241
236
240
241
236
240
241
236
240
241
236
240
241
236
240
241
149
165
165
149
165
165
176
185
188
189
195
199
189
195
199
165
177
179
149
165
165
173
186
186
236
240
241
236
240
241
236
240
241
236
240
241
239
207
78
240
196
25
240
196
25
237
226
171
236
240
241
235
202
199
230
76
60
230
76
60
230
76
60
230
76
60
230
76
60
230
76
60
230
76
60
230
76
60
230
76
60
230
76
60
230
76
60
230
76
60
230
76
60
230
76
60
230
76
60
230
76
60
230
76
60
235
207
205
236
240
241
200
208
227
134
151
203
134
151
203
134
151
203
134
151
203
134
151
203
136
153
204
232
237
240
236
240
241
236
240
241
236
240
241
236
240
241
236
240
241
236
240
241
236
240
241
236
240
241
236
240
241
236
240
241
236
240
241
236
240
241
236
240
241
236
240
241
236
240
241
236
240
241
236
240
241
236
240
241
236
240
241
149
165
165
149
165
165
160
174
175
178
187
190
176
185
188
154
169
169
149
165
165
173
186
186
236
240
241
236
240
241
236
240
241
236
240
241
237
226
170
239
208
82
239
211
98
236
236
221
236
240
241
236
232
232
232
135
125
231
117
105
231
117
105
231
117
105
231
117
105
231
117
105
231
117
105
231
117
105
231
117
105
231
117
105
231
117
105
231
117
105
231
117
105
231
117
105
231
117
105
231
117
105
232
137
127
236
234
235
236
240
241
225
230
237
167
180
215
159
173
212
159
173
212
159
173
212
159
173
212
182
193
221
236
240
241
236
240
241
236
240
241
236
240
241
236
240
241
236
240
241
236
240
241
236
240
241
236
240
241
236
240
241
236
240
241
236
240
241
236
240
241
236
240
241
236
240
241
236
240
241
236
240
241
236
240
241
236
240
241
236
240
241
149
165
165
149
165
165
149
165
165
149
165
165
149
165
165
149
165
165
149
165
165
173
186
186
236
240
241
236
240
241
236
240
241
236
240
241
236
240
241
236
240
241
236
240
241
236
240
241
236
240
241
236
240
241
236
240
241
236
240
241
236
240
241
236
240
241
236
240
241
236
240
241
236
240
241
236
240
241
236
240
241
236
240
241
236
240
241
236
240
241
236
240
241
236
240
241
236
240
241
236
240
241
236
240
241
236
240
241
236
240
241
236
240
241
236
240
241
236
240
241
236
240
241
236
240
241
236
240
241
236
240
241
236
240
241
236
240
241
236
240
241
236
240
241
236
240
241
236
240
241
236
240
241
236
240
241
236
240
241
236
240
241
236
240
241
236
240
241
236
240
241
236
240
241
236
240
241
236
240
241
236
240
241
236
240
241
236
240
241
236
240
241
149
165
165
149
165
165
149
165
165
150
166
166
149
165
165
149
165
165
149
165
165
173
186
186
236
240
241
236
240
241
236
240
241
236
240
241
236
240
241
232
239
238
231
238
237
231
238
237
231
238
237
231
238
237
231
238
237
231
238
237
231
238
237
231
238
237
231
238
237
235
240
240
236
240
241
236
240
241
236
240
241
235
239
241
233
237
240
234
238
240
236
240
241
236
240
241
236
240
241
236
240
241
236
236
237
236
235
235
236
235
235
236
235
235
236
235
235
236
235
235
236
235
235
236
235
236
236
240
241
236
240
241
236
240
241
236
240
241
236
239
237
236
239
238
236
240
241
236
240
241
236
240
241
236
240
241
236
240
241
236
240
241
236
240
241
236
240
241
236
240
241
236
240
241
236
240
241
236
240
241
236
240
241
236
240
241
236
240
241
236
240
241
149
165
165
149
165
165
168
179
181
189
195
199
187
193
197
159
173
174
149
165
165
173
186
186
236
240
241
236
240
241
236
240
241
236
240
241
149
210
169
80
186
112
79
186
111
79
186
111
79
186
111
79
186
111
79
186
111
79
186
111
79
186
111
79
186
111
79
186
111
97
192
126
225
236
232
236
240
241
210
217
231
139
156
205
134
151
203
134
151
203
177
188
219
236
240
241
236
240
241
233
145
136
230
77
61
230
76
60
230
76
60
230
76
60
230
76
60
230
76
60
230
76
60
230
76
60
232
121
110
236
240
241
236
240
241
238
220
143
240
197
28
240
198
35
237
228
181
236
240
241
236
240
241
236
240
241
236
240
241
236
240
241
236
240
241
236
240
241
236
240
241
236
240
241
236
240
241
236
240
241
236
240
241
236
240
241
236
240
241
236
240
241
149
165
165
149
165
165
172
182
185
189
195
199
189
195
199
162
175
176
149
165
165
173
186
186
236
240
241
236
240
241
236
240
241
236
240
241
133
204
155
79
186
111
79
186
111
79
186
111
79
186
111
79
186
111
79
186
111
79
186
111
79
186
111
79
186
111
79
186
111
85
188
116
219
234
227
236
240
241
203
211
229
134
151
203
134
151
203
134
151
203
166
179
215
236
240
241
236
240
241
232
127
116
230
76
60
230
76
60
230
76
60
230
76
60
230
76
60
230
76
60
230
76
60
230
76
60
231
104
91
236
240
241
236
240
241
238
216
122
240
196
25
240
196
26
237
225
166
236
240
241
236
240
241
236
240
241
236
240
241
236
240
241
236
240
241
236
240
241
236
240
241
236
240
241
236
240
241
236
240
241
236
240
241
236
240
241
236
240
241
236
240
241
149
165
165
149
165
165
149
165
165
156
170
171
154
168
169
149
165
165
149
165
165
173
186
186
236
240
241
236
240
241
236
240
241
236
240
241
235
240
240
209
231
219
206
230
217
206
230
217
206
230
217
206
230
217
206
230
217
206
230
217
206
230
217
206
230
217
206
230
217
225
236
232
236
240
241
236
240
241
236
240
241
224
230
237
217
223
234
218
224
234
235
239
241
236
240
241
236
240
241
236
239
240
235
211
209
235
209
207
235
209
207
235
209
207
235
209
207
235
209
207
235
209
207
235
210
208
236
235
236
236
240
241
236
240
241
236
240
241
237
233
206
236
235
215
236
240
241
236
240
241
236
240
241
236
240
241
236
240
241
236
240
241
236
240
241
236
240
241
236
240
241
236
240
241
236
240
241
236
240
241
236
240
241
236
240
241
236
240
241
236
240
241
149
165
165
149
165
165
149
165
165
149
165
165
149
165
165
149
165
165
149
165
165
173
186
186
236
240
241
236
240
241
236
240
241
236
240
241
236
240
241
236
240
241
236
240
241
236
240
241
236
240
241
236
240
241
236
240
241
236
240
241
236
240
241
236
240
241
236
240
241
236
240
241
236
240
241
236
240
241
236
240
241
236
240
241
236
240
241
236
240
241
236
240
241
236
240
241
236
240
241
236
240
241
236
240
241
236
240
241
236
240
241
236
240
241
236
240
241
236
240
241
236
240
241
236
240
241
236
240
241
236
240
241
236
240
241
236
240
241
236
240
241
236
240
241
236
240
241
236
240
241
236
240
241
236
240
241
236
240
241
236
240
241
236
240
241
236
240
241
236
240
241
236
240
241
236
240
241
236
240
241
236
240
241
236
240
241
236
240
241
236
240
241
149
165
165
149
165
165
157
171
172
173
183
186
171
182
184
152
168
168
149
165
165
173
186
186
236
240
241
236
240
241
236
240
241
236
240
241
236
240
241
236
240
241
236
240
241
236
240
241
236
240
241
236
240
241
236
240
241
236
240
241
236
240
241
236
240
241
236
240
241
236
240
241
236
240
241
236
240
241
236
240
241
236
240
241
236
240
241
236
240
241
236
240
241
236
240
241
236
240
241
236
240
241
236
240
241
236
240
241
236
240
241
236
240
241
236
240
241
236
240
241
236
240
241
236
240
241
236
240
241
236
240
241
236
240
241
236
240
241
236
240
241
236
240
241
236
240
241
236
240
241
236
240
241
236
240
241
236
240
241
236
240
241
236
240
241
236
240
241
236
240
241
236
240
241
236
240
241
236
240
241
236
240
241
236
240
241
236
240
241
236
240
241
149
165
165
149
165
165
176
185
188
189
195
199
189
195
199
166
178
179
149
165
165
173
186
186
236
240
241
236
240
241
236
240
241
236
240
241
236
240
241
236
240
241
236
240
241
236
240
241
236
240
241
236
240
241
236
240
241
236
240
241
236
240
241
236
240
241
236
240
241
236
240
241
236
240
241
236
240
241
236
240
241
236
240
241
236
240
241
236
240
241
236
240
241
236
240
241
236
240
241
236
240
241
236
240
241
236
240
241
236
240
241
236
240
241
236
240
241
236
240
241
236
240
241
236
240
241
236
240
241
236
240
241
236
240
241
236
240
241
236
240
241
236
240
241
236
240
241
236
240
241
236
240
241
236
240
241
236
240
241
236
240
241
236
240
241
236
240
241
236
240
241
236
240
241
236
240
241
236
240
241
236
240
241
236
240
241
236
240
241
236
240
241
149
165
165
149
165
165
156
170
171
172
182
184
170
181
183
152
167
167
149
165
165
173
186
186
236
240
241
236
240
241
236
240
241
236
240
241
236
240
241
236
240
241
236
240
241
236
240
241
236
240
241
236
240
241
236
240
241
236
240
241
236
240
241
236
240
241
236
240
241
236
240
241
236
240
241
236
240
241
236
240
241
236
240
241
236
240
241
236
240
241
236
240
241
236
240
241
236
240
241
236
240
241
236
240
241
236
240
241
236
240
241
236
240
241
236
240
241
236
240
241
236
240
241
236
240
241
236
240
241
236
240
241
236
240
241
236
240
241
236
240
241
236
240
241
236
240
241
236
240
241
236
240
241
236
240
241
236
240
241
236
240
241
236
240
241
236
240
241
236
240
241
236
240
241
236
240
241
236
240
241
236
240
241
236
240
241
236
240
241
236
240
241
149
165
165
149
165
165
149
165
165
149
165
165
149
165
165
149
165
165
149
165
165
173
186
186
236
240
241
236
240
241
236
240
241
236
240
241
236
240
241
236
240
241
236
240
241
236
240
241
236
240
241
236
240
241
236
240
241
236
240
241
236
240
241
236
240
241
236
240
241
236
240
241
236
240
241
236
240
241
236
240
241
236
240
241
236
240
241
236
240
241
236
240
241
236
240
241
236
240
241
236
240
241
236
240
241
236
240
241
236
240
241
236
240
241
236
240
241
236
240
241
236
240
241
236
240
241
236
240
241
236
240
241
236
240
241
236
240
241
236
240
241
236
240
241
236
240
241
236
240
241
236
240
241
236
240
241
236
240
241
236
240
241
236
240
241
236
240
241
236
240
241
236
240
241
236
240
241
236
240
241
236
240
241
236
240
241
236
240
241
236
240
241
149
165
165
149
165
165
149
165
165
149
165
165
149
165
165
149
165
165
149
165
165
173
186
186
236
240
241
236
240
241
236
240
241
236
240
241
236
240
241
236
240
241
236
240
241
236
240
241
236
240
241
236
240
241
236
240
241
236
240
241
236
240
241
236
240
241
236
240
241
236
240
241
236
240
241
236
240
241
236
240
241
236
240
241
236
240
241
236
240
241
236
240
241
236
240
241
236
240
241
236
240
241
236
240
241
236
240
241
236
240
241
236
240
241
236
240
241
236
240
241
236
240
241
236
240
241
236
240
241
236
240
241
236
240
241
236
240
241
236
240
241
236
240
241
236
240
241
236
240
241
236
240
241
236
240
241
236
240
241
236
240
241
236
240
241
236
240
241
236
240
241
236
240
241
236
240
241
236
240
241
236
240
241
236
240
241
236
240
241
236
240
241
149
165
165
149
165
165
149
165
165
149
165
165
149
165
165
149
165
165
149
165
165
173
186
186
236
240
241
236
240
241
236
240
241
236
240
241
236
240
241
236
240
241
236
240
241
236
240
241
236
240
241
236
240
241
236
240
241
236
240
241
236
240
241
236
240
241
236
240
241
236
240
241
236
240
241
236
240
241
236
240
241
236
240
241
236
240
241
236
240
241
236
240
241
236
240
241
236
240
241
236
240
241
236
240
241
236
240
241
236
240
241
236
240
241
236
240
241
236
240
241
236
240
241
236
240
241
236
240
241
236
240
241
236
240
241
236
240
241
236
240
241
236
240
241
236
240
241
236
240
241
236
240
241
236
240
241
236
240
241
236
240
241
236
240
241
236
240
241
236
240
241
236
240
241
236
240
241
236
240
241
236
240
241
236
240
241
236
240
241
236
240
241
149
165
165
149
165
165
149
165
165
149
165
165
149
165
165
149
165
165
149
165
165
173
186
186
236
240
241
236
240
241
236
240
241
236
240
241
236
240
241
236
240
241
236
240
241
236
240
241
236
240
241
236
240
241
236
240
241
236
240
241
236
240
241
236
240
241
236
240
241
236
240
241
236
240
241
236
240
241
236
240
241
236
240
241
236
240
241
236
240
241
236
240
241
236
240
241
236
240
241
236
240
241
236
240
241
236
240
241
236
240
241
236
240
241
236
240
241
236
240
241
236
240
241
236
240
241
236
240
241
236
240
241
236
240
241
236
240
241
236
240
241
236
240
241
236
240
241
236
240
241
236
240
241
236
240
241
236
240
241
236
240
241
236
240
241
236
240
241
236
240
241
236
240
241
236
240
241
236
240
241
236
240
241
236
240
241
236
240
241
236
240
241
