P3
16	16
255
255	255	255		255	255	255		255	255	255		255	255	255		255	255	255		255	255	255		255	255	255		255	255	255		255	255	255		255	255	255		255	255	255		255	255	255		255	255	255		255	255	255		255	255	255		255	255	255		
255	255	255		227	61	61		227	61	61		227	61	61		227	61	61		255	255	255		196	7	115		196	7	115		196	7	115		196	7	115		255	255	255		115	7	196		115	7	196		115	7	196		115	7	196		255	255	255		
255	255	255		227	61	61		227	61	61		227	61	61		227	61	61		255	255	255		196	7	115		196	7	115		196	7	115		196	7	115		255	255	255		115	7	196		115	7	196		115	7	196		115	7	196		255	255	255		
255	255	255		227	61	61		227	61	61		227	61	61		227	61	61		255	255	255		196	7	115		196	7	115		196	7	115		196	7	115		255	255	255		115	7	196		115	7	196		115	7	196		115	7	196		255	255	255		
255	255	255		227	61	61		227	61	61		227	61	61		227	61	61		255	255	255		196	7	115		196	7	115		196	7	115		196	7	115		255	255	255		115	7	196		115	7	196		115	7	196		115	7	196		255	255	255		
255	255	255		255	255	255		255	255	255		255	255	255		255	255	255		255	255	255		255	255	255		255	255	255		255	255	255		255	255	255		255	255	255		255	255	255		255	255	255		255	255	255		255	255	255		255	255	255		
255	255	255		196	115	7		196	115	7		196	115	7		196	115	7		255	255	255		38	163	215		38	163	215		38	163	215		38	163	215		255	255	255		61	61	227		61	61	227		61	61	227		61	61	227		255	255	255		
255	255	255		196	115	7		196	115	7		196	115	7		196	115	7		255	255	255		38	163	215		38	163	215		38	163	215		38	163	215		255	255	255		61	61	227		61	61	227		61	61	227		61	61	227		255	255	255		
255	255	255		196	115	7		196	115	7		196	115	7		196	115	7		255	255	255		38	163	215		38	163	215		38	163	215		38	163	215		255	255	255		61	61	227		61	61	227		61	61	227		61	61	227		255	255	255		
255	255	255		196	115	7		196	115	7		196	115	7		196	115	7		255	255	255		38	163	215		38	163	215		38	163	215		38	163	215		255	255	255		61	61	227		61	61	227		61	61	227		61	61	227		255	255	255		
255	255	255		255	255	255		255	255	255		255	255	255		255	255	255		255	255	255		255	255	255		255	255	255		255	255	255		255	255	255		255	255	255		255	255	255		255	255	255		255	255	255		255	255	255		255	255	255		
255	255	255		255	192	0		255	192	0		255	192	0		255	192	0		255	255	255		61	227	61		61	227	61		61	227	61		61	227	61		255	255	255		7	184	108		7	184	108		7	184	108		7	184	108		255	255	255		
255	255	255		255	192	0		255	192	0		255	192	0		255	192	0		255	255	255		61	227	61		61	227	61		61	227	61		61	227	61		255	255	255		7	184	108		7	184	108		7	184	108		7	184	108		255	255	255		
255	255	255		255	192	0		255	192	0		255	192	0		255	192	0		255	255	255		61	227	61		61	227	61		61	227	61		61	227	61		255	255	255		7	184	108		7	184	108		7	184	108		7	184	108		255	255	255		
255	255	255		255	192	0		255	192	0		255	192	0		255	192	0		255	255	255		61	227	61		61	227	61		61	227	61		61	227	61		255	255	255		7	184	108		7	184	108		7	184	108		7	184	108		255	255	255		
255	255	255		255	255	255		255	255	255		255	255	255		255	255	255		255	255	255		255	255	255		255	255	255		255	255	255		255	255	255		255	255	255		255	255	255		255	255	255		255	255	255		255	255	255		255	255	255		
